<?xml version="1.0" encoding="UTF-8" standalone="no"?>
<svg width="219px" height="75px" viewBox="0 0 219 75" version="1.1" xmlns="http://www.w3.org/2000/svg" xmlns:xlink="http://www.w3.org/1999/xlink" xmlns:sketch="http://www.bohemiancoding.com/sketch/ns">
    <!-- Generator: Sketch 3.3 (11970) - http://www.bohemiancoding.com/sketch -->
    <title>logo-path</title>
    <desc>Created with Sketch.</desc>
    <defs></defs>
    <g id="logo" stroke="none" stroke-width="1" fill="none" fill-rule="evenodd" sketch:type="MSPage">
        <g id="logo-path" sketch:type="MSArtboardGroup">
            <g id="forms-type" sketch:type="MSLayerGroup">
                <g id="T" sketch:type="MSShapeGroup">
                    <path d="M0,25 L50,25 L50,75 L0,75 L0,25 Z M25,0 L50,25 L0,25 L25,0 Z" id="Rectangle-1" fill="#EE1111"></path>
                    <path d="M39.296875,37.4335938 L28.2128906,37.4335938 L28.2128906,68 L22.0849609,68 L22.0849609,37.4335938 L11.0986328,37.4335938 L11.0986328,32.453125 L39.296875,32.453125 L39.296875,37.4335938 Z" fill="#FFFFFF"></path>
                </g>
                <g id="A1" transform="translate(57.000000, 0.000000)" sketch:type="MSShapeGroup">
                    <path d="M0,25 L50,25 L50,75 L0,75 L0,25 Z M0,0 L25,25 L50,0 L50,25 L0,25 L0,0 Z" id="Rectangle-3-Copy" fill="#007AF2"></path>
                    <path d="M31.5107422,59.7236328 L17.7412109,59.7236328 L14.8603516,68 L8.43945312,68 L21.8671875,32.453125 L27.4091797,32.453125 L40.8613281,68 L34.4160156,68 L31.5107422,59.7236328 Z M19.4746094,54.7431641 L29.7773438,54.7431641 L24.6259766,39.9970703 L19.4746094,54.7431641 Z" id="A-2" fill="#FFFFFF"></path>
                </g>
                <g id="C" transform="translate(113.000000, 0.000000)" sketch:type="MSShapeGroup">
                    <path d="M0,25 L50,25 L50,75 L0,75 L0,25 Z M25,0 C50,1.53080845e-15 50,25 50,25 L0,25 C0,25 0,-1.5308085e-15 25,0 Z" id="Rectangle-1" fill="#FDBD10"></path>
                    <path d="M39.7373047,56.4277344 C39.5745435,58.1692795 39.1676465,59.7765226 38.5166016,61.2495117 C37.8655566,62.7225009 36.9622454,63.9960884 35.8066406,65.0703125 C34.6510359,66.1445366 33.2391034,66.9827444 31.5708008,67.5849609 C29.9024982,68.1871775 27.9778755,68.4882812 25.796875,68.4882812 C23.6158745,68.4882812 21.6424242,68.0935912 19.8764648,67.3041992 C18.1105055,66.5148073 16.6049867,65.3917716 15.3598633,63.9350586 C14.1147399,62.4783456 13.158532,60.7164817 12.4912109,58.6494141 C11.8238899,56.5823464 11.4902344,54.2630337 11.4902344,51.6914062 L11.4902344,48.8105469 C11.4902344,46.2551956 11.8320278,43.9399518 12.515625,41.8647461 C13.1992222,39.7895404 14.1757749,38.0195386 15.4453125,36.5546875 C16.7148501,35.0898364 18.2488517,33.9586628 20.0473633,33.1611328 C21.8458749,32.3636028 23.8600149,31.9648438 26.0898438,31.9648438 C28.2057397,31.9648438 30.0774658,32.2700165 31.7050781,32.8803711 C33.3326904,33.4907257 34.7120712,34.3370714 35.8432617,35.4194336 C36.9744523,36.5017958 37.8614877,37.7916592 38.5043945,39.2890625 C39.1473014,40.7864658 39.5582673,42.4221917 39.7373047,44.1962891 L33.5849609,44.1962891 C33.454752,43.0732366 33.2309586,42.0641321 32.9135742,41.1689453 C32.5961898,40.2737585 32.1445342,39.5128612 31.5585938,38.8862305 C30.9726533,38.2595997 30.2321008,37.7835303 29.3369141,37.4580078 C28.4417273,37.1324854 27.3593813,36.9697266 26.0898438,36.9697266 C24.6900972,36.9697266 23.4653373,37.2342096 22.4155273,37.7631836 C21.3657174,38.2921576 20.4908889,39.0571239 19.7910156,40.0581055 C19.0911423,41.059087 18.5662452,42.2919849 18.2163086,43.7568359 C17.8663719,45.221687 17.6914062,46.8899646 17.6914062,48.7617188 L17.6914062,51.6914062 C17.6914062,53.4655037 17.8460271,55.0768157 18.1552734,56.5253906 C18.4645198,57.9739656 18.9446582,59.2150013 19.5957031,60.2485352 C20.246748,61.282069 21.0849558,62.083656 22.1103516,62.6533203 C23.1357473,63.2229846 24.3645762,63.5078125 25.796875,63.5078125 C27.1315171,63.5078125 28.2586217,63.3531917 29.1782227,63.0439453 C30.0978236,62.734699 30.8587209,62.2789744 31.4609375,61.6767578 C32.0631541,61.0745413 32.5310856,60.3339888 32.8647461,59.4550781 C33.1984066,58.5761675 33.4384758,57.567063 33.5849609,56.4277344 L39.7373047,56.4277344 Z" fill="#FFFFFF"></path>
                </g>
                <g id="A2" transform="translate(169.000000, 0.000000)" sketch:type="MSShapeGroup">
                    <path d="M0,25 L50,25 L50,75 L0,75 L0,25 Z M0,0 L25,25 L50,0 L50,25 L0,25 L0,0 Z" id="Rectangle-3-Copy" fill="#007AF2"></path>
                    <path d="M31.5107422,59.7236328 L17.7412109,59.7236328 L14.8603516,68 L8.43945312,68 L21.8671875,32.453125 L27.4091797,32.453125 L40.8613281,68 L34.4160156,68 L31.5107422,59.7236328 Z M19.4746094,54.7431641 L29.7773438,54.7431641 L24.6259766,39.9970703 L19.4746094,54.7431641 Z" id="A" fill="#FFFFFF"></path>
                </g>
            </g>
        </g>
    </g>
</svg>